<svg version="1.1" xmlns="http://www.w3.org/2000/svg" viewBox="0 0 869.8196452026291 476.25" width="1739.6392904052582" height="952.5">
  <!-- svg-source:excalidraw -->
  
  <defs>
    <style class="style-fonts">
      @font-face {
        font-family: "Virgil";
        src: url("https://file%2B.vscode-resource.vscode-cdn.net/home/rodrigocoelho/.vscode/extensions/pomdtr.excalidraw-editor-3.7.4/public//dist/excalidraw-assets/Virgil.woff2");
      }
      @font-face {
        font-family: "Cascadia";
        src: url("https://file%2B.vscode-resource.vscode-cdn.net/home/rodrigocoelho/.vscode/extensions/pomdtr.excalidraw-editor-3.7.4/public//dist/excalidraw-assets/Cascadia.woff2");
      }
      @font-face {
        font-family: "Assistant";
        src: url("https://file%2B.vscode-resource.vscode-cdn.net/home/rodrigocoelho/.vscode/extensions/pomdtr.excalidraw-editor-3.7.4/public//dist/excalidraw-assets/Assistant-Regular.woff2");
      }
    </style>
    
  </defs>
  <rect x="0" y="0" width="869.8196452026291" height="476.25" fill="#ffffff"></rect><g stroke-linecap="round" transform="translate(625.3196452026291 10) rotate(0 113 80.25)"><path d="M32 0 C83.59 -2.54, 138.88 -3.53, 194 0 M32 0 C80.32 0.3, 128.01 0.43, 194 0 M194 0 C217.16 0.13, 227.6 10.09, 226 32 M194 0 C216.43 1.1, 225.12 12.69, 226 32 M226 32 C224.01 61.11, 226.13 89.95, 226 128.5 M226 32 C225.29 57.82, 225.42 84.91, 226 128.5 M226 128.5 C225.05 148.84, 214.5 160.93, 194 160.5 M226 128.5 C227.53 149.34, 215.24 160.02, 194 160.5 M194 160.5 C138.4 164.01, 78.52 160.15, 32 160.5 M194 160.5 C136.09 160.96, 76.46 160.68, 32 160.5 M32 160.5 C9.03 161.07, -1.68 149.93, 0 128.5 M32 160.5 C8.54 162.65, 0.54 152.02, 0 128.5 M0 128.5 C0.81 103.28, -1.99 74.82, 0 32 M0 128.5 C0.58 100.7, 1.95 74.87, 0 32 M0 32 C0.05 10.19, 11.46 -0.17, 32 0 M0 32 C0.37 8.58, 9.23 -2.04, 32 0" stroke="#1e1e1e" stroke-width="2" fill="none"></path></g><g transform="translate(696.6596873168869 77.75) rotate(0 41.65995788574219 12.5)"><text x="41.65995788574219" y="0" font-family="Virgil, Segoe UI Emoji" font-size="20px" fill="#1e1e1e" text-anchor="middle" style="white-space: pre;" direction="ltr" dominant-baseline="text-before-edge">BigQuery</text></g><g stroke-linecap="round" transform="translate(633.8196452026291 305.75) rotate(0 113 80.25)"><path d="M32 0 C81.79 -0.02, 128.68 -2.63, 194 0 M32 0 C78.24 0.04, 126.85 -0.43, 194 0 M194 0 C214.54 1.48, 225.55 9.73, 226 32 M194 0 C215.52 0.49, 224.62 11.19, 226 32 M226 32 C227.04 65.21, 226.73 97.15, 226 128.5 M226 32 C226.37 59.13, 225.99 87.84, 226 128.5 M226 128.5 C224.89 151.67, 215.66 159.7, 194 160.5 M226 128.5 C225.21 149.59, 214.31 158.3, 194 160.5 M194 160.5 C158.72 162.5, 123.59 160.34, 32 160.5 M194 160.5 C160.63 160.93, 128.18 160.8, 32 160.5 M32 160.5 C9.99 160.53, 1.61 148.99, 0 128.5 M32 160.5 C12.48 158.73, 1.41 148.49, 0 128.5 M0 128.5 C0.06 91.11, 0.16 54.18, 0 32 M0 128.5 C0.43 96.47, 1.1 64.97, 0 32 M0 32 C0.19 10.77, 9.72 -0.87, 32 0 M0 32 C0.35 9.63, 12.9 -2.29, 32 0" stroke="#1e1e1e" stroke-width="2" fill="none"></path></g><g transform="translate(677.1197245483322 373.5) rotate(0 69.69992065429688 12.5)"><text x="69.69992065429688" y="0" font-family="Virgil, Segoe UI Emoji" font-size="20px" fill="#1e1e1e" text-anchor="middle" style="white-space: pre;" direction="ltr" dominant-baseline="text-before-edge">Cloud Storage</text></g><g stroke-linecap="round" transform="translate(190.3196452026291 170.25) rotate(0 113 80.25)"><path d="M32 0 C74.78 -0.95, 118.78 -0.35, 194 0 M32 0 C91.1 0.27, 148.39 0.15, 194 0 M194 0 C216.93 0.09, 224.1 12.21, 226 32 M194 0 C216.18 2.1, 225.92 8.53, 226 32 M226 32 C228.49 58.9, 226.43 87.22, 226 128.5 M226 32 C225.62 63.5, 226.05 95.09, 226 128.5 M226 128.5 C224.47 150.31, 215.6 160.98, 194 160.5 M226 128.5 C224.9 147.75, 216.17 160.98, 194 160.5 M194 160.5 C142.03 160.39, 86.57 159.4, 32 160.5 M194 160.5 C141.56 159.22, 90.18 159.24, 32 160.5 M32 160.5 C8.91 160.7, 0.29 150.37, 0 128.5 M32 160.5 C9.5 161.64, 1.19 150.69, 0 128.5 M0 128.5 C-1.21 109.57, -1.13 89.17, 0 32 M0 128.5 C-0.1 104.98, -1.78 82.5, 0 32 M0 32 C1.67 9.92, 11.53 -0.11, 32 0 M0 32 C-1.17 11.62, 11.5 0.45, 32 0" stroke="#1e1e1e" stroke-width="2" fill="none"></path></g><g transform="translate(230.79971722411346 238) rotate(0 72.51992797851562 12.5)"><text x="72.51992797851562" y="0" font-family="Virgil, Segoe UI Emoji" font-size="20px" fill="#1e1e1e" text-anchor="middle" style="white-space: pre;" direction="ltr" dominant-baseline="text-before-edge">Mini Query API</text></g><g mask="url(#mask-86E0WquwJEUWdkqVyXvzT)" stroke-linecap="round"><g transform="translate(738.2150792038636 177) rotate(0 1.8144316251789974 59.875)"><path d="M0.43 -0.13 C1.28 19.69, 4.27 98.74, 4.74 118.6 M-0.81 -1.24 C0.02 18.71, 3.86 99.33, 4.37 119.53" stroke="#1e1e1e" stroke-width="2" fill="none"></path></g><g transform="translate(738.2150792038636 177) rotate(0 1.8144316251789974 59.875)"><path d="M2.86 120.68 L-1.67 106.6 L8.87 103.92 L3.2 118.88" stroke="none" stroke-width="0" fill="#1e1e1e" fill-rule="evenodd"></path><path d="M4.37 119.53 C2.4 117.35, -0.72 111.9, -2.48 106.18 M4.37 119.53 C3.19 115.99, 0.85 112.93, -2.48 106.18 M-2.48 106.18 C0.25 106.04, 5.84 105.27, 10.19 105.7 M-2.48 106.18 C0.89 105.96, 4.55 105.97, 10.19 105.7 M10.19 105.7 C6.83 110.26, 7.2 115.5, 4.37 119.53 M10.19 105.7 C9.01 109.4, 7.35 113.46, 4.37 119.53 M4.37 119.53 C4.37 119.53, 4.37 119.53, 4.37 119.53 M4.37 119.53 C4.37 119.53, 4.37 119.53, 4.37 119.53" stroke="#1e1e1e" stroke-width="2" fill="none"></path></g></g><mask id="mask-86E0WquwJEUWdkqVyXvzT"><rect x="0" y="0" fill="#fff" width="841.8439424542216" height="396.75"></rect><rect x="708.5195468397848" y="224.375" fill="#000" width="63.019927978515625" height="25" opacity="1"></rect></mask><g transform="translate(708.5195468397849 224.375) rotate(0 31.660430194497962 11.769904364226363)"><text x="31.509963989257812" y="0" font-family="Virgil, Segoe UI Emoji" font-size="20px" fill="#1e1e1e" text-anchor="middle" style="white-space: pre;" direction="ltr" dominant-baseline="text-before-edge">export</text></g><g mask="url(#mask-GOdiiqGS_ZUEztMvpgmka)" stroke-linecap="round"><g transform="translate(624.0696452026291 415.57848486364765) rotate(0 -147.19411084111243 -36.41424243182382)"><path d="M-1.07 -0.7 C-26.88 -2.94, -105.77 -2.1, -154.64 -14.21 C-203.51 -26.33, -271.13 -63.67, -294.28 -73.4 M0.58 1.54 C-25.45 -0.43, -106.53 -0.43, -155.79 -12.75 C-205.05 -25.07, -272.15 -62.62, -294.98 -72.38" stroke="#1e1e1e" stroke-width="2" fill="none"></path></g><g transform="translate(624.0696452026291 415.57848486364765) rotate(0 -147.19411084111243 -36.41424243182382)"><path d="M-295.73 -74.37 L-278.39 -70.72 L-285.71 -61.61 L-295.46 -71.61" stroke="none" stroke-width="0" fill="#1e1e1e" fill-rule="evenodd"></path><path d="M-294.98 -72.38 C-291.05 -72.67, -285.53 -71.98, -279.98 -72.19 M-294.98 -72.38 C-290.82 -71.84, -287.97 -72.36, -279.98 -72.19 M-279.98 -72.19 C-280.88 -69.28, -282.33 -64.84, -285.49 -60.76 M-279.98 -72.19 C-281.59 -68.51, -283.73 -64.46, -285.49 -60.76 M-285.49 -60.76 C-288.6 -63.6, -291.12 -68.13, -294.98 -72.38 M-285.49 -60.76 C-289.55 -65.29, -292.46 -68.69, -294.98 -72.38 M-294.98 -72.38 C-294.98 -72.38, -294.98 -72.38, -294.98 -72.38 M-294.98 -72.38 C-294.98 -72.38, -294.98 -72.38, -294.98 -72.38" stroke="#1e1e1e" stroke-width="2" fill="none"></path></g></g><mask id="mask-GOdiiqGS_ZUEztMvpgmka"><rect x="0" y="0" fill="#fff" width="1018.457866884854" height="588.4069697272953"></rect><rect x="449.2896693115158" y="389" fill="#000" width="41.05995178222656" height="25" opacity="1"></rect></mask><g transform="translate(449.2896693115158 389) rotate(0 27.576483821660077 -9.346980934236456)"><text x="20.52997589111328" y="0" font-family="Virgil, Segoe UI Emoji" font-size="20px" fill="#1e1e1e" text-anchor="middle" style="white-space: pre;" direction="ltr" dominant-baseline="text-before-edge">load</text></g><g transform="translate(12.7872206485074 277.1719868979176) rotate(0 22.33997344970703 12.5)"><text x="0" y="0" font-family="Virgil, Segoe UI Emoji" font-size="20px" fill="#000000" text-anchor="start" style="white-space: pre;" direction="ltr" dominant-baseline="text-before-edge">User</text></g><g stroke-linecap="round"><g transform="translate(10 267.51906088793885) rotate(0 24.63471035906872 -21.936502105304584)" fill-rule="evenodd"><path d="M13.47 -38.64 C13.47 -38.64, 13.47 -38.64, 13.47 -38.64 M13.47 -38.64 C13.47 -38.64, 13.47 -38.64, 13.47 -38.64 M3.11 -14.53 C12.6 -25.45, 22.09 -36.36, 28.04 -43.2 M3.11 -14.53 C12.41 -25.23, 21.71 -35.93, 28.04 -43.2 M0.61 0.53 C11.63 -12.14, 22.64 -24.81, 35.39 -39.47 M0.61 0.53 C9.85 -10.09, 19.08 -20.71, 35.39 -39.47 M11.24 0.5 C22.75 -12.73, 34.25 -25.96, 40.77 -33.46 M11.24 0.5 C20.84 -10.53, 30.43 -21.57, 40.77 -33.46 M21.87 0.47 C29.76 -8.61, 37.65 -17.68, 44.84 -25.95 M21.87 0.47 C28.73 -7.42, 35.58 -15.3, 44.84 -25.95 M32.5 0.43 C36.18 -3.8, 39.86 -8.04, 48.91 -18.44 M32.5 0.43 C37.64 -5.48, 42.77 -11.38, 48.91 -18.44 M44.45 -1.11 C46.73 -3.74, 49.01 -6.37, 51.66 -9.41 M44.45 -1.11 C46.89 -3.93, 49.34 -6.74, 51.66 -9.41 M0 0 C0 0, 0 0, 0 0 M0 0 C0 0, 0 0, 0 0 M12.04 -0.13 C8.98 -2.79, 5.92 -5.45, 1.47 -9.32 M12.04 -0.13 C8.97 -2.8, 5.9 -5.47, 1.47 -9.32 M24.84 0.39 C16.74 -6.65, 8.64 -13.69, 2.95 -18.64 M24.84 0.39 C17.57 -5.92, 10.31 -12.24, 2.95 -18.64 M36.12 -0.4 C25.73 -9.43, 15.34 -18.46, 5.18 -27.3 M36.12 -0.4 C25.64 -9.52, 15.15 -18.63, 5.18 -27.3 M46.65 -1.84 C34.57 -12.35, 22.48 -22.86, 9.67 -33.99 M46.65 -1.84 C38.07 -9.31, 29.48 -16.77, 9.67 -33.99 M51.9 -7.88 C39.07 -19.04, 26.24 -30.19, 14.92 -40.03 M51.9 -7.88 C38.98 -19.12, 26.06 -30.35, 14.92 -40.03 M47.34 -22.45 C42.32 -26.81, 37.31 -31.17, 22.43 -44.1 M47.34 -22.45 C39.66 -29.13, 31.98 -35.8, 22.43 -44.1" stroke="#ced4da" stroke-width="1" fill="none"></path><path d="M0 0 C0.92 -4.85, 1.58 -21.76, 5.52 -29.07 C9.46 -36.38, 17.61 -43.34, 23.65 -43.87 C29.69 -44.4, 37.51 -39.05, 41.78 -32.24 C46.05 -25.43, 56.23 -8.39, 49.27 -3.02 C42.31 2.36, 8.21 -0.5, 0 0 M0 0 C0.92 -4.85, 1.58 -21.76, 5.52 -29.07 C9.46 -36.38, 17.61 -43.34, 23.65 -43.87 C29.69 -44.4, 37.51 -39.05, 41.78 -32.24 C46.05 -25.43, 56.23 -8.39, 49.27 -3.02 C42.31 2.36, 8.21 -0.5, 0 0" stroke="#000000" stroke-width="2" fill="none"></path></g></g><mask></mask><g stroke-linecap="round" transform="translate(22.453870836315673 200.82801310208242) rotate(0 12.612971703843215 11.036350240862845)"><path d="M2.98 3.91 C2.98 3.91, 2.98 3.91, 2.98 3.91 M2.98 3.91 C2.98 3.91, 2.98 3.91, 2.98 3.91 M2.45 16.71 C5.72 12.96, 8.98 9.2, 16.23 0.86 M2.45 16.71 C6.45 12.11, 10.45 7.51, 16.23 0.86 M8.49 21.96 C12.46 17.39, 16.43 12.82, 22.92 5.35 M8.49 21.96 C12.61 17.22, 16.73 12.48, 22.92 5.35 M4.36 19.37 C4.36 19.37, 4.36 19.37, 4.36 19.37 M4.36 19.37 C4.36 19.37, 4.36 19.37, 4.36 19.37 M17.91 20.55 C12.05 15.45, 6.18 10.34, 1.31 6.11 M17.91 20.55 C13.77 16.95, 9.63 13.34, 1.31 6.11 M23.92 15.17 C19.33 11.18, 14.74 7.19, 7.31 0.73 M23.92 15.17 C18.73 10.66, 13.55 6.15, 7.31 0.73" stroke="#ced4da" stroke-width="1" fill="none"></path><path d="M25.23 11.04 C25.23 11.68, 25.16 12.32, 25.03 12.95 C24.91 13.58, 24.71 14.21, 24.47 14.81 C24.22 15.41, 23.9 16, 23.54 16.55 C23.17 17.11, 22.74 17.64, 22.28 18.13 C21.81 18.62, 21.28 19.08, 20.72 19.49 C20.16 19.9, 19.55 20.27, 18.92 20.59 C18.29 20.91, 17.61 21.19, 16.93 21.41 C16.24 21.63, 15.52 21.79, 14.8 21.91 C14.08 22.02, 13.34 22.07, 12.61 22.07 C11.88 22.07, 11.14 22.02, 10.42 21.91 C9.7 21.79, 8.99 21.63, 8.3 21.41 C7.61 21.19, 6.94 20.91, 6.31 20.59 C5.67 20.27, 5.06 19.9, 4.51 19.49 C3.95 19.08, 3.42 18.62, 2.95 18.13 C2.48 17.64, 2.05 17.11, 1.69 16.55 C1.32 16, 1.01 15.41, 0.76 14.81 C0.51 14.21, 0.32 13.58, 0.19 12.95 C0.06 12.32, 0 11.68, 0 11.04 C0 10.4, 0.06 9.75, 0.19 9.12 C0.32 8.49, 0.51 7.86, 0.76 7.26 C1.01 6.66, 1.32 6.07, 1.69 5.52 C2.05 4.96, 2.48 4.43, 2.95 3.94 C3.42 3.45, 3.95 2.99, 4.51 2.58 C5.06 2.17, 5.67 1.8, 6.31 1.48 C6.94 1.16, 7.61 0.88, 8.3 0.67 C8.99 0.45, 9.7 0.28, 10.42 0.17 C11.14 0.06, 11.88 0, 12.61 0 C13.34 0, 14.08 0.06, 14.8 0.17 C15.52 0.28, 16.24 0.45, 16.93 0.67 C17.61 0.88, 18.29 1.16, 18.92 1.48 C19.55 1.8, 20.16 2.17, 20.72 2.58 C21.28 2.99, 21.81 3.45, 22.28 3.94 C22.74 4.43, 23.17 4.96, 23.54 5.52 C23.9 6.07, 24.22 6.66, 24.47 7.26 C24.71 7.86, 24.91 8.49, 25.03 9.12 C25.16 9.75, 25.19 10.72, 25.23 11.04 C25.26 11.36, 25.26 10.72, 25.23 11.04" stroke="#000000" stroke-width="2" fill="none"></path></g><g mask="url(#mask-vhAW4lP8qOrKEcGfdDIoC)" stroke-linecap="round"><g transform="translate(317.3196452026291 162.5) rotate(0 149.5 -27.658731439699537)"><path d="M0.53 0.3 C22.78 -8.25, 84.68 -41.55, 134.47 -50.95 C184.27 -60.36, 271.85 -55.32, 299.3 -56.14 M-0.65 -0.59 C21.31 -8.95, 83.35 -40.28, 133.24 -49.39 C183.13 -58.5, 270.98 -54.31, 298.69 -55.26" stroke="#1e1e1e" stroke-width="2" fill="none"></path></g><g transform="translate(317.3196452026291 162.5) rotate(0 149.5 -27.658731439699537)"><path d="M297.88 -56.71 L283.46 -47.65 L283.75 -60.66 L297.21 -55.17" stroke="none" stroke-width="0" fill="#1e1e1e" fill-rule="evenodd"></path><path d="M298.69 -55.26 C293.9 -53.45, 288.4 -50.01, 285.09 -48.93 M298.69 -55.26 C296.15 -54.23, 292.47 -53.07, 285.09 -48.93 M285.09 -48.93 C284.17 -52.51, 284.21 -57.56, 285.1 -61.61 M285.09 -48.93 C284.93 -52.08, 284.82 -54.1, 285.1 -61.61 M285.1 -61.61 C288.99 -58.12, 293.67 -58.12, 298.69 -55.26 M285.1 -61.61 C290.45 -59.08, 293.94 -56.71, 298.69 -55.26 M298.69 -55.26 C298.69 -55.26, 298.69 -55.26, 298.69 -55.26 M298.69 -55.26 C298.69 -55.26, 298.69 -55.26, 298.69 -55.26" stroke="#1e1e1e" stroke-width="2" fill="none"></path></g></g><mask id="mask-vhAW4lP8qOrKEcGfdDIoC"><rect x="0" y="0" fill="#fff" width="716.3196452026291" height="317.81746287939905"></rect><rect x="414.49969128417206" y="99" fill="#000" width="75.63990783691406" height="25" opacity="1"></rect></mask><g transform="translate(414.49969128417206 99) rotate(0 52.1416359485919 35.2659834907563)"><text x="37.81995391845703" y="0" font-family="Virgil, Segoe UI Emoji" font-size="20px" fill="#1e1e1e" text-anchor="middle" style="white-space: pre;" direction="ltr" dominant-baseline="text-before-edge">register</text></g><g stroke-linecap="round"><g transform="translate(85.81964520262909 249) rotate(0 44.75 0)"><path d="M-1.13 1.15 C13.9 0.94, 74.79 0.16, 89.81 -0.08 M0.48 0.72 C15.41 1.21, 74.44 1.39, 89.02 1.41" stroke="#1e1e1e" stroke-width="2" fill="none"></path></g><g transform="translate(85.81964520262909 249) rotate(0 44.75 0)"><path d="M91.02 1.51 L77.27 7.63 L75.78 -5.72 L87.36 0.38" stroke="none" stroke-width="0" fill="#1e1e1e" fill-rule="evenodd"></path><path d="M89.02 1.41 C86.86 3.37, 81.64 4.07, 75.41 7.71 M89.02 1.41 C85.45 2.88, 81.25 5.15, 75.41 7.71 M75.41 7.71 C74.3 2.65, 74.55 0.1, 75.45 -4.97 M75.41 7.71 C75.23 3.06, 75.69 -2.2, 75.45 -4.97 M75.45 -4.97 C79.23 -1.99, 83.48 -1.46, 89.02 1.41 M75.45 -4.97 C80.19 -3.16, 84.87 -1.17, 89.02 1.41 M89.02 1.41 C89.02 1.41, 89.02 1.41, 89.02 1.41 M89.02 1.41 C89.02 1.41, 89.02 1.41, 89.02 1.41" stroke="#1e1e1e" stroke-width="2" fill="none"></path></g></g><mask></mask></svg>